<svg width="20" height="21" viewBox="0 0 20 21" fill="none" xmlns="http://www.w3.org/2000/svg">
<g clip-path="url(#clip0_665_1314)">
<path d="M19.1667 16.3333C19.1667 16.7754 18.9911 17.1993 18.6785 17.5118C18.366 17.8244 17.9421 18 17.5 18H2.50004C2.05801 18 1.63409 17.8244 1.32153 17.5118C1.00897 17.1993 0.833374 16.7754 0.833374 16.3333V7.16667C0.833374 6.72464 1.00897 6.30072 1.32153 5.98816C1.63409 5.67559 2.05801 5.5 2.50004 5.5H5.83337L7.50004 3H12.5L14.1667 5.5H17.5C17.9421 5.5 18.366 5.67559 18.6785 5.98816C18.9911 6.30072 19.1667 6.72464 19.1667 7.16667V16.3333Z" stroke="#9A9A9A" stroke-width="2" stroke-linecap="round" stroke-linejoin="round"/>
<path d="M10 14.6667C11.841 14.6667 13.3334 13.1743 13.3334 11.3333C13.3334 9.49238 11.841 8 10 8C8.15909 8 6.66671 9.49238 6.66671 11.3333C6.66671 13.1743 8.15909 14.6667 10 14.6667Z" stroke="#9A9A9A" stroke-width="2" stroke-linecap="round" stroke-linejoin="round"/>
</g>
<defs>
<clipPath id="clip0_665_1314">
<rect width="20" height="20" fill="white" transform="translate(0 0.5)"/>
</clipPath>
</defs>
</svg>
