<svg width="35" height="36" viewBox="0 0 35 36" fill="none" xmlns="http://www.w3.org/2000/svg">
<path d="M5.83325 15.0833L17.4999 4.875L29.1666 15.0833L29.1666 29.6667H21.8749V23.8333C21.8749 22.673 21.414 21.5602 20.5935 20.7397C19.773 19.9193 18.6602 19.4583 17.4999 19.4583C16.3396 19.4583 15.2268 19.9193 14.4063 20.7397C13.5859 21.5602 13.1249 22.673 13.1249 23.8333V29.6667H5.83326L5.83325 15.0833Z" fill="#BA9754"/>
<path d="M5.83325 15.0833L17.4999 4.875L29.1666 15.0833L29.1666 29.6667H21.8749V23.8333C21.8749 22.673 21.414 21.5602 20.5935 20.7397C19.773 19.9193 18.6602 19.4583 17.4999 19.4583C16.3396 19.4583 15.2268 19.9193 14.4063 20.7397C13.5859 21.5602 13.1249 22.673 13.1249 23.8333V29.6667H5.83326L5.83325 15.0833Z" stroke="#BA9754" stroke-width="2" stroke-linecap="round" stroke-linejoin="round"/>
</svg>
