<svg width="20" height="21" viewBox="0 0 20 21" fill="none" xmlns="http://www.w3.org/2000/svg">
<path d="M7.23976 11.1894L6.59332 10.4264L6.59331 10.4265L7.23976 11.1894ZM7.28102 11.1499L6.56854 10.4482L6.56775 10.449L7.28102 11.1499ZM5.54531 12.6251L4.89885 11.8622L4.89885 11.8622L5.54531 12.6251ZM5.45248 12.7229L6.27329 13.2941L6.27329 13.2941L5.45248 12.7229ZM14.4473 11.2494L13.7548 11.9708L14.4473 11.2494ZM13.0011 9.86106L12.3086 10.5824L12.3086 10.5824L13.0011 9.86106ZM12.4641 9.85729L11.7817 9.12622L11.7792 9.1286L12.4641 9.85729ZM9.78537 12.3749L10.4677 13.1059L10.4702 13.1035L9.78537 12.3749ZM9.24006 12.363L8.52409 13.0611L8.52552 13.0626L9.24006 12.363ZM9.23302 12.3557L8.51637 13.0532L8.51705 13.0539L9.23302 12.3557ZM9.19474 12.3186L9.84947 11.5627L9.84946 11.5627L9.19474 12.3186ZM7.8898 11.1883L8.54452 10.4324L8.54451 10.4324L7.8898 11.1883ZM7.85137 11.151L8.56826 10.4538L8.56758 10.4531L7.85137 11.151ZM7.84449 11.1439L8.56071 10.446L8.55935 10.4446L7.84449 11.1439ZM7.28843 11.1424L6.57737 10.4392L6.57595 10.4407L7.28843 11.1424ZM13.3746 6.28109V5.28109C12.8223 5.28109 12.3746 5.72881 12.3746 6.28109H13.3746ZM13.6427 6.28109H14.6427C14.6427 5.72881 14.195 5.28109 13.6427 5.28109V6.28109ZM13.6427 6.50815V7.50815C14.195 7.50815 14.6427 7.06043 14.6427 6.50815H13.6427ZM13.3746 6.50815H12.3746C12.3746 7.06043 12.8223 7.50815 13.3746 7.50815V6.50815ZM1.5 5.8125V15.1875H3.5V5.8125H1.5ZM5.3125 19H14.6875V17H5.3125V19ZM18.5 15.1875V5.8125H16.5V15.1875H18.5ZM14.6875 2H5.3125V4H14.6875V2ZM18.5 5.8125C18.5 3.70692 16.7931 2 14.6875 2V4C15.6885 4 16.5 4.81148 16.5 5.8125H18.5ZM14.6875 19C16.7931 19 18.5 17.2931 18.5 15.1875H16.5C16.5 16.1885 15.6885 17 14.6875 17V19ZM1.5 15.1875C1.5 17.2931 3.20692 19 5.3125 19V17C4.31148 17 3.5 16.1885 3.5 15.1875H1.5ZM3.5 5.8125C3.5 4.81148 4.31148 4 5.3125 4V2C3.20691 2 1.5 3.70691 1.5 5.8125H3.5ZM7.8862 11.9524C7.94138 11.9056 7.98633 11.8589 7.99429 11.8508L6.56775 10.449C6.56408 10.4527 6.56274 10.4541 6.56172 10.4551C6.56092 10.4559 6.56179 10.455 6.56371 10.4532C6.56731 10.4497 6.57783 10.4396 6.59332 10.4264L7.8862 11.9524ZM6.19176 13.3881L7.88621 11.9524L6.59331 10.4265L4.89885 11.8622L6.19176 13.3881ZM6.27329 13.2941C6.24933 13.3285 6.22737 13.3529 6.21327 13.3675C6.1995 13.3817 6.19052 13.3891 6.19176 13.3881L4.89885 11.8622C4.83572 11.9157 4.72885 12.012 4.63167 12.1517L6.27329 13.2941ZM6.3125 13.1691C6.3125 13.2139 6.29873 13.2575 6.27329 13.2941L4.63168 12.1517C4.42459 12.4492 4.3125 12.8041 4.3125 13.1691H6.3125ZM6.3125 14.7969V13.1691H4.3125V14.7969H6.3125ZM5.70313 14.1875C6.03967 14.1875 6.3125 14.4603 6.3125 14.7969H4.3125C4.3125 15.5649 4.93511 16.1875 5.70313 16.1875V14.1875ZM14.2969 14.1875H5.70313V16.1875H14.2969V14.1875ZM13.6875 14.7969C13.6875 14.4603 13.9603 14.1875 14.2969 14.1875V16.1875C15.0649 16.1875 15.6875 15.5649 15.6875 14.7969H13.6875ZM13.6875 11.813V14.7969H15.6875V11.813H13.6875ZM13.7548 11.9708C13.7118 11.9295 13.6875 11.8725 13.6875 11.813H15.6875C15.6875 11.328 15.4897 10.8639 15.1398 10.528L13.7548 11.9708ZM12.3086 10.5824L13.7548 11.9708L15.1398 10.528L13.6936 9.13968L12.3086 10.5824ZM13.1464 10.5883C12.9098 10.8091 12.542 10.8065 12.3086 10.5824L13.6936 9.13968C13.161 8.62832 12.3215 8.62241 11.7817 9.12623L13.1464 10.5883ZM10.4702 13.1035L13.1489 10.586L11.7792 9.1286L9.10051 11.6462L10.4702 13.1035ZM8.52552 13.0626C9.04898 13.5972 9.9112 13.6253 10.4677 13.1059L9.10305 11.6438C9.34714 11.416 9.72474 11.4286 9.95459 11.6634L8.52552 13.0626ZM8.51705 13.0539L8.52409 13.0611L9.95602 11.6648L9.94898 11.6576L8.51705 13.0539ZM8.54002 13.0744C8.52568 13.062 8.51592 13.0525 8.5126 13.0492C8.51083 13.0475 8.51002 13.0467 8.51076 13.0474C8.51171 13.0484 8.51297 13.0497 8.51637 13.0532L9.94966 11.6583C9.94229 11.6507 9.90049 11.6069 9.84947 11.5627L8.54002 13.0744ZM7.23509 11.9442L8.54003 13.0745L9.84946 11.5627L8.54452 10.4324L7.23509 11.9442ZM7.13448 11.8481C7.14192 11.8558 7.18385 11.8998 7.23509 11.9442L8.54451 10.4324C8.5589 10.4449 8.56869 10.4544 8.57204 10.4577C8.57382 10.4595 8.57463 10.4603 8.57389 10.4595C8.57294 10.4586 8.57168 10.4573 8.56826 10.4538L7.13448 11.8481ZM7.12828 11.8418L7.13516 11.8488L8.56758 10.4531L8.5607 10.446L7.12828 11.8418ZM7.99949 11.8455C7.75953 12.0882 7.36859 12.0874 7.12963 11.8432L8.55935 10.4446C8.01632 9.88948 7.12271 9.88775 6.57737 10.4392L7.99949 11.8455ZM7.9935 11.8516L8.00091 11.8441L6.57595 10.4407L6.56854 10.4482L7.9935 11.8516ZM13.3746 7.28109H13.6427V5.28109H13.3746V7.28109ZM12.6427 6.28109V6.50815H14.6427V6.28109H12.6427ZM13.6427 5.50815H13.3746V7.50815H13.6427V5.50815ZM14.3746 6.50815V6.28109H12.3746V6.50815H14.3746Z" fill="#9A9A9A"/>
</svg>
