<svg width="20" height="21" viewBox="0 0 20 21" fill="none" xmlns="http://www.w3.org/2000/svg">
<path d="M10.0001 18.8334C9.80564 18.8334 9.63897 18.7779 9.50008 18.6667C9.36119 18.5556 9.25703 18.4098 9.18758 18.2292C8.92369 17.4515 8.59036 16.7223 8.18758 16.0417C7.79869 15.3612 7.25008 14.5626 6.54175 13.6459C5.83341 12.7292 5.25703 11.8542 4.81258 11.0209C4.38203 10.1876 4.16675 9.18064 4.16675 8.00008C4.16675 6.37508 4.72925 5.00008 5.85425 3.87508C6.99314 2.73619 8.37508 2.16675 10.0001 2.16675C11.6251 2.16675 13.0001 2.73619 14.1251 3.87508C15.264 5.00008 15.8334 6.37508 15.8334 8.00008C15.8334 9.26397 15.5904 10.3195 15.1042 11.1667C14.632 12.0001 14.0834 12.8265 13.4584 13.6459C12.7084 14.6459 12.139 15.4792 11.7501 16.1459C11.3751 16.7987 11.0626 17.4931 10.8126 18.2292C10.7431 18.4237 10.632 18.5765 10.4792 18.6876C10.3404 18.7848 10.1806 18.8334 10.0001 18.8334ZM10.0001 10.0834C10.5834 10.0834 11.0765 9.88203 11.4792 9.47925C11.882 9.07647 12.0834 8.58341 12.0834 8.00008C12.0834 7.41675 11.882 6.92369 11.4792 6.52091C11.0765 6.11814 10.5834 5.91675 10.0001 5.91675C9.41675 5.91675 8.92369 6.11814 8.52092 6.52091C8.11814 6.92369 7.91675 7.41675 7.91675 8.00008C7.91675 8.58341 8.11814 9.07647 8.52092 9.47925C8.92369 9.88203 9.41675 10.0834 10.0001 10.0834Z" fill="white"/>
</svg>
