<svg width="20" height="20" viewBox="0 0 20 20" fill="none" xmlns="http://www.w3.org/2000/svg">
<path fill-rule="evenodd" clip-rule="evenodd" d="M19.3014 18.4796L14.6073 13.7865C17.4336 10.3933 17.0912 5.37717 13.8299 2.39958C10.5686 -0.578004 5.54207 -0.463768 2.4194 2.6589C-0.70327 5.78158 -0.817506 10.8081 2.16008 14.0694C5.13766 17.3307 10.1538 17.6731 13.547 14.8468L18.2401 19.5409C18.5332 19.8339 19.0083 19.8339 19.3014 19.5409C19.5944 19.2478 19.5944 18.7727 19.3014 18.4796ZM1.52073 8.51023C1.52073 4.78231 4.54281 1.76023 8.27073 1.76023C11.9987 1.76023 15.0207 4.78231 15.0207 8.51023C15.0207 12.2382 11.9987 15.2602 8.27073 15.2602C4.54452 15.2561 1.52486 12.2364 1.52073 8.51023Z" fill="#61788A"/>
</svg>
