<svg width="36" height="36" viewBox="0 0 36 36" fill="none" xmlns="http://www.w3.org/2000/svg">
<path d="M5.2607 31.5C4.79673 31.5 4.33325 31.0646 4.33325 30.4139C4.33325 27.8124 5.41423 25.467 7.61478 23.7595C9.8264 22.0433 13.2066 20.9444 17.8332 20.9444C22.4599 20.9444 25.8401 22.0433 28.0517 23.7595C30.2523 25.467 31.3332 27.8124 31.3332 30.4139C31.3332 31.0646 30.8698 31.5 30.4058 31.5H5.2607ZM22.5832 9.25C22.5832 11.8734 20.4566 14 17.8332 14C15.2099 14 13.0833 11.8734 13.0833 9.25C13.0833 6.62665 15.2099 4.5 17.8332 4.5C20.4566 4.5 22.5832 6.62665 22.5832 9.25Z" fill="#9A9A9A" stroke="#313131"/>
</svg>
